<?xml version="1.0" encoding="UTF-8" standalone="no"?>
<svg
   width="92.92189"
   zoomAndPan="magnify"
   viewBox="0 0 69.691416 69.589844"
   height="92.786461"
   preserveAspectRatio="xMidYMid"
   version="1.0"
   id="svg17"
   sodipodi:docname="qraga_white_full.svg"
   xmlns:inkscape="http://www.inkscape.org/namespaces/inkscape"
   xmlns:sodipodi="http://sodipodi.sourceforge.net/DTD/sodipodi-0.dtd"
   xmlns="http://www.w3.org/2000/svg"
   xmlns:svg="http://www.w3.org/2000/svg">
  <sodipodi:namedview
     id="namedview1"
     pagecolor="#ffffff"
     bordercolor="#000000"
     borderopacity="0.25"
     inkscape:showpageshadow="2"
     inkscape:pageopacity="0.0"
     inkscape:pagecheckerboard="0"
     inkscape:deskcolor="#d1d1d1">
    <inkscape:page
       x="0"
       y="0"
       width="69.691414"
       height="69.589844"
       id="page2"
       margin="0"
       bleed="0" />
  </sodipodi:namedview>
  <defs
     id="defs1">
    <clipPath
       id="d62535c7cb">
      <path
         d="m 53.707031,125.10156 h 69.749999 v 69.75 H 53.707031 Z m 0,0"
         clip-rule="nonzero"
         id="path1" />
    </clipPath>
  </defs>
  <g
     clip-path="url(#d62535c7cb)"
     id="g2"
     transform="translate(-53.707031,-125.10556)">
    <path
       fill="#ffffff"
       d="m 88.601562,159.89844 v 23.92187 c -0.03125,0 -0.0625,0.004 -0.09766,0.004 -13.191406,0 -23.921875,-10.73438 -23.921875,-23.92578 0,-13.1875 10.730469,-23.92188 23.921875,-23.92188 13.191408,0 23.925788,10.73438 23.925788,23.92188 0,4.28906 -1.13672,8.3125 -3.11719,11.79687 l 7.89063,7.89063 c 1.32031,-1.92188 2.44531,-3.97266 3.36328,-6.14063 1.8164,-4.29297 2.73437,-8.85156 2.73437,-13.54687 0,-4.69141 -0.91797,-9.25 -2.73437,-13.54297 -1.75391,-4.14453 -4.26172,-7.86719 -7.45703,-11.0586 -3.19141,-3.19531 -6.91407,-5.70312 -11.0586,-7.45703 -4.292972,-1.8164 -8.851565,-2.73437 -13.546878,-2.73437 -4.695312,0 -9.25,0.91797 -13.542968,2.73437 -4.144532,1.75391 -7.867188,4.26172 -11.0625,7.45703 -3.191407,3.19141 -5.699219,6.91407 -7.453126,11.0586 -1.816406,4.29297 -2.738281,8.85156 -2.738281,13.54297 0,4.69531 0.921875,9.2539 2.738281,13.54687 1.753907,4.14453 4.261719,7.86719 7.453126,11.0586 3.195312,3.19531 6.917968,5.70312 11.0625,7.45703 4.292968,1.8164 8.847656,2.73437 13.542968,2.73437 3.769532,0 7.445313,-0.59375 10.96875,-1.76562 v -6.77735 l 8.546878,8.54297 h 15.37891 L 88.601562,159.89844"
       fill-opacity="1"
       fill-rule="nonzero"
       id="path2" />
  </g>
</svg>
