<?xml version="1.0" encoding="UTF-8" standalone="no"?>
<svg
   width="297.91107"
   zoomAndPan="magnify"
   viewBox="0 0 223.4333 69.589838"
   height="92.786453"
   preserveAspectRatio="xMidYMid"
   version="1.0"
   id="svg17"
   xmlns="http://www.w3.org/2000/svg"
   xmlns:svg="http://www.w3.org/2000/svg">
  <defs
     id="defs1">
    <clipPath
       id="480296ebf4">
      <path
         d="m 53.707031,125.10156 h 69.749999 v 69.75 H 53.707031 Z m 0,0"
         clip-rule="nonzero"
         id="path1" />
    </clipPath>
  </defs>
  <g
     clip-path="url(#480296ebf4)"
     id="g2"
     transform="translate(-53.707032,-125.10547)">
    <path
       fill="#ffbd59"
       d="m 88.601562,159.89844 v 23.92187 c -0.03125,0 -0.0625,0.004 -0.09766,0.004 -13.191406,0 -23.921875,-10.73438 -23.921875,-23.92578 0,-13.1875 10.730469,-23.92188 23.921875,-23.92188 13.191408,0 23.925788,10.73438 23.925788,23.92188 0,4.28906 -1.13672,8.3125 -3.11719,11.79687 l 7.89063,7.89063 c 1.32031,-1.92188 2.44531,-3.97266 3.36328,-6.14063 1.8164,-4.29297 2.73437,-8.85156 2.73437,-13.54687 0,-4.69141 -0.91797,-9.25 -2.73437,-13.54297 -1.75391,-4.14453 -4.26172,-7.86719 -7.45703,-11.0586 -3.19141,-3.19531 -6.91407,-5.70312 -11.0586,-7.45703 -4.292972,-1.8164 -8.851565,-2.73437 -13.546878,-2.73437 -4.695312,0 -9.25,0.91797 -13.542968,2.73437 -4.144532,1.75391 -7.867188,4.26172 -11.0625,7.45703 -3.191407,3.19141 -5.699219,6.91407 -7.453126,11.0586 -1.816406,4.29297 -2.738281,8.85156 -2.738281,13.54297 0,4.69531 0.921875,9.2539 2.738281,13.54687 1.753907,4.14453 4.261719,7.86719 7.453126,11.0586 3.195312,3.19531 6.917968,5.70312 11.0625,7.45703 4.292968,1.8164 8.847656,2.73437 13.542968,2.73437 3.769532,0 7.445313,-0.59375 10.96875,-1.76562 v -6.77735 l 8.546878,8.54297 h 15.37891 L 88.601562,159.89844"
       fill-opacity="1"
       fill-rule="nonzero"
       id="path2" />
  </g>
  <g
     fill="#ffbd59"
     fill-opacity="1"
     id="g5"
     transform="translate(-53.707032,-125.10547)">
    <g
       transform="translate(136.66743,177.35972)"
       id="g4">
      <g
         id="g3">
        <path
           d="m 21.515625,-21.859375 c -0.75,-0.851563 -1.558594,-1.453125 -2.421875,-1.796875 -0.867188,-0.34375 -1.789062,-0.515625 -2.765625,-0.515625 -0.960937,0 -1.828125,0.183594 -2.609375,0.546875 -0.78125,0.355469 -1.453125,0.921875 -2.015625,1.703125 -0.5625,0.773437 -1,1.761719 -1.3125,2.96875 -0.304687,1.199219 -0.453125,2.625 -0.453125,4.28125 0,1.648437 0.125,3.042969 0.375,4.1875 0.25,1.148437 0.609375,2.074219 1.078125,2.78125 0.46875,0.710937 1.035156,1.21875 1.703125,1.53125 0.664062,0.3125 1.410156,0.46875 2.234375,0.46875 1.394531,0 2.5625,-0.273437 3.5,-0.828125 0.945313,-0.550781 1.84375,-1.332031 2.6875,-2.34375 z m 7.90625,-7.671875 V 9.546875 h -7.90625 V -3.5 c -1.148437,1.1875 -2.4375,2.140625 -3.875,2.859375 -1.429687,0.71875 -3.105469,1.078125 -5.03125,1.078125 -1.585937,0 -3.039063,-0.335938 -4.359375,-1 C 6.9375,-1.238281 5.796875,-2.21875 4.828125,-3.5 c -0.96875,-1.289062 -1.71875,-2.875 -2.25,-4.75 -0.53125,-1.875 -0.796875,-4.015625 -0.796875,-6.421875 0,-2.195313 0.296875,-4.238281 0.890625,-6.125 0.601563,-1.894531 1.457031,-3.53125 2.5625,-4.90625 1.113281,-1.375 2.453125,-2.453125 4.015625,-3.234375 1.570312,-0.78125 3.3125,-1.171875 5.21875,-1.171875 0.894531,0 1.710938,0.08594 2.453125,0.25 0.75,0.15625 1.429687,0.382813 2.046875,0.671875 0.625,0.28125 1.195312,0.636719 1.71875,1.0625 0.53125,0.417969 1.046875,0.882812 1.546875,1.390625 l 0.375,-1.421875 c 0.28125,-0.914062 0.925781,-1.375 1.9375,-1.375 z m 0,0"
           id="path3" />
      </g>
    </g>
  </g>
  <g
     fill="#ffbd59"
     fill-opacity="1"
     id="g8"
     transform="translate(-53.707032,-125.10547)">
    <g
       transform="translate(169.35202,177.35972)"
       id="g7">
      <g
         id="g6">
        <path
           d="m 10.6875,-24.671875 c 0.9375,-1.675781 2.015625,-3 3.234375,-3.96875 1.21875,-0.976563 2.648437,-1.46875 4.296875,-1.46875 1.332031,0 2.421875,0.320313 3.265625,0.953125 l -0.515625,5.84375 c -0.09375,0.375 -0.246094,0.636719 -0.453125,0.78125 -0.199219,0.148438 -0.46875,0.21875 -0.8125,0.21875 -0.304687,0 -0.742187,-0.03906 -1.3125,-0.125 -0.574219,-0.09375 -1.109375,-0.140625 -1.609375,-0.140625 -0.71875,0 -1.359375,0.109375 -1.921875,0.328125 -0.5625,0.210938 -1.070313,0.507812 -1.515625,0.890625 -0.4375,0.375 -0.835938,0.839844 -1.1875,1.390625 -0.355469,0.554688 -0.683594,1.183594 -0.984375,1.890625 V 0 H 3.265625 V -29.53125 H 7.9375 c 0.800781,0 1.351562,0.148438 1.65625,0.4375 0.3125,0.28125 0.53125,0.777344 0.65625,1.484375 z m 0,0"
           id="path5" />
      </g>
    </g>
  </g>
  <g
     fill="#ffbd59"
     fill-opacity="1"
     id="g11"
     transform="translate(-53.707032,-125.10547)">
    <g
       transform="translate(190.95078,177.35972)"
       id="g10">
      <g
         id="g9">
        <path
           d="m 18.703125,-12.34375 c -1.929687,0.09375 -3.53125,0.261719 -4.8125,0.5 -1.28125,0.242188 -2.296875,0.554688 -3.046875,0.9375 -0.75,0.375 -1.289062,0.808594 -1.609375,1.296875 -0.3125,0.492187 -0.46875,1.023437 -0.46875,1.59375 0,1.148437 0.316406,1.960937 0.953125,2.4375 0.644531,0.46875 1.539062,0.703125 2.6875,0.703125 1.3125,0 2.453125,-0.234375 3.421875,-0.703125 0.96875,-0.46875 1.925781,-1.195313 2.875,-2.1875 z M 2.609375,-25.4375 c 1.738281,-1.5625 3.65625,-2.726562 5.75,-3.5 2.101563,-0.78125 4.378906,-1.171875 6.828125,-1.171875 1.75,0 3.316406,0.289063 4.703125,0.859375 1.382813,0.574219 2.554687,1.371094 3.515625,2.390625 0.96875,1.023437 1.707031,2.242187 2.21875,3.65625 0.519531,1.417969 0.78125,2.964844 0.78125,4.640625 V 0 H 22.796875 C 22.054688,0 21.488281,-0.101562 21.09375,-0.3125 20.707031,-0.519531 20.390625,-0.960938 20.140625,-1.640625 l -0.625,-1.890625 c -0.75,0.65625 -1.476563,1.234375 -2.171875,1.734375 -0.699219,0.492187 -1.421875,0.902344 -2.171875,1.234375 -0.742187,0.335938 -1.539063,0.5820312 -2.390625,0.75 C 11.9375,0.363281 10.988281,0.453125 9.9375,0.453125 8.644531,0.453125 7.460938,0.28125 6.390625,-0.0625 5.316406,-0.40625 4.394531,-0.914062 3.625,-1.59375 2.851562,-2.269531 2.253906,-3.113281 1.828125,-4.125 c -0.417969,-1.007812 -0.625,-2.175781 -0.625,-3.5 0,-1.082031 0.273437,-2.164062 0.828125,-3.25 0.550781,-1.09375 1.5,-2.082031 2.84375,-2.96875 1.351562,-0.894531 3.148438,-1.632812 5.390625,-2.21875 2.25,-0.582031 5.0625,-0.910156 8.4375,-0.984375 V -18.5625 c 0,-1.851562 -0.390625,-3.210938 -1.171875,-4.078125 -0.78125,-0.875 -1.90625,-1.3125 -3.375,-1.3125 -1.09375,0 -2.007812,0.132813 -2.734375,0.390625 -0.71875,0.261719 -1.355469,0.542969 -1.90625,0.84375 -0.542969,0.292969 -1.054687,0.570312 -1.53125,0.828125 -0.46875,0.25 -1.023437,0.375 -1.65625,0.375 -0.554687,0 -1.015625,-0.132813 -1.390625,-0.40625 -0.367188,-0.28125 -0.671875,-0.613281 -0.921875,-1 z m 0,0"
           id="path8" />
      </g>
    </g>
  </g>
  <g
     fill="#ffbd59"
     fill-opacity="1"
     id="g14"
     transform="translate(-53.707032,-125.10547)">
    <g
       transform="translate(220.28385,177.35972)"
       id="g13">
      <g
         id="g12">
        <path
           d="m 14.265625,-15.875 c 1.625,0 2.820313,-0.40625 3.59375,-1.21875 0.769531,-0.820312 1.15625,-1.882812 1.15625,-3.1875 0,-1.351562 -0.386719,-2.414062 -1.15625,-3.1875 -0.773437,-0.78125 -1.96875,-1.171875 -3.59375,-1.171875 -1.625,0 -2.820313,0.390625 -3.578125,1.171875 -0.761719,0.773438 -1.140625,1.835938 -1.140625,3.1875 0,1.28125 0.382813,2.339844 1.15625,3.171875 0.769531,0.824219 1.957031,1.234375 3.5625,1.234375 z M 21.75,1.203125 c 0,-0.511719 -0.167969,-0.929687 -0.5,-1.25 -0.324219,-0.332031 -0.757812,-0.59375 -1.296875,-0.78125 -0.542969,-0.195313 -1.1875,-0.335937 -1.9375,-0.421875 -0.742187,-0.082031 -1.53125,-0.144531 -2.375,-0.1875 C 14.796875,-1.488281 13.925781,-1.535156 13.03125,-1.578125 12.132812,-1.617188 11.257812,-1.6875 10.40625,-1.78125 9.726562,-1.375 9.175781,-0.898438 8.75,-0.359375 8.320312,0.179688 8.109375,0.796875 8.109375,1.484375 c 0,0.476563 0.109375,0.914063 0.328125,1.3125 0.21875,0.40625 0.582031,0.75 1.09375,1.03125 0.519531,0.289063 1.195312,0.515625 2.03125,0.671875 0.84375,0.164062 1.894531,0.25 3.15625,0.25 1.300781,0 2.398438,-0.089844 3.296875,-0.265625 0.894531,-0.167969 1.617187,-0.40625 2.171875,-0.71875 0.5625,-0.3125 0.960938,-0.6875 1.203125,-1.125 C 21.628906,2.203125 21.75,1.722656 21.75,1.203125 Z M 29.59375,-28.5625 v 2.890625 c 0,0.460937 -0.132812,0.824219 -0.390625,1.09375 -0.261719,0.273437 -0.683594,0.46875 -1.265625,0.59375 l -2.40625,0.5 c 0.320312,0.929687 0.484375,1.929687 0.484375,3 0,1.46875 -0.304687,2.792969 -0.90625,3.96875 -0.605469,1.179687 -1.433594,2.183594 -2.484375,3.015625 -1.042969,0.824219 -2.28125,1.460938 -3.71875,1.90625 -1.429688,0.449219 -2.976562,0.671875 -4.640625,0.671875 -1.054687,0 -2.039063,-0.08203 -2.953125,-0.25 -0.804688,0.5 -1.203125,1.042969 -1.203125,1.625 0,0.5625 0.269531,0.96875 0.8125,1.21875 0.550781,0.242187 1.269531,0.414063 2.15625,0.515625 0.882813,0.105469 1.894531,0.171875 3.03125,0.203125 1.132813,0.03125 2.289063,0.09375 3.46875,0.1875 1.175781,0.09375 2.332031,0.261719 3.46875,0.5 1.132813,0.242187 2.144531,0.636719 3.03125,1.1875 0.894531,0.542969 1.613281,1.261719 2.15625,2.15625 0.539063,0.898437 0.8125,2.054687 0.8125,3.46875 0,1.3125 -0.328125,2.585937 -0.984375,3.828125 -0.648438,1.25 -1.585938,2.359375 -2.8125,3.328125 -1.230469,0.976563 -2.746094,1.757813 -4.546875,2.34375 -1.792969,0.59375 -3.835937,0.890625 -6.125,0.890625 -2.273437,0 -4.246094,-0.214844 -5.921875,-0.640625 C 6.988281,9.210938 5.601562,8.640625 4.5,7.921875 3.40625,7.203125 2.59375,6.375 2.0625,5.4375 1.53125,4.507812 1.265625,3.535156 1.265625,2.515625 c 0,-1.3125 0.398437,-2.4296875 1.203125,-3.34375 C 3.269531,-1.742188 4.375,-2.476562 5.78125,-3.03125 5.039062,-3.457031 4.445312,-4.007812 4,-4.6875 3.550781,-5.363281 3.328125,-6.242188 3.328125,-7.328125 c 0,-0.882813 0.316406,-1.8125 0.953125,-2.78125 0.644531,-0.976563 1.632812,-1.789063 2.96875,-2.4375 -1.511719,-0.800781 -2.710938,-1.875 -3.59375,-3.21875 -0.875,-1.351563 -1.3125,-2.925781 -1.3125,-4.71875 0,-1.46875 0.300781,-2.789063 0.90625,-3.96875 0.601562,-1.1875 1.4375,-2.195313 2.5,-3.03125 1.070312,-0.832031 2.332031,-1.46875 3.78125,-1.90625 1.457031,-0.4375 3.035156,-0.65625 4.734375,-0.65625 2.519531,0 4.742187,0.496094 6.671875,1.484375 z m 0,0"
           id="path11" />
      </g>
    </g>
  </g>
  <g
     fill="#ffbd59"
     fill-opacity="1"
     id="g17"
     transform="translate(-53.707032,-125.10547)">
    <g
       transform="translate(250.73409,177.35972)"
       id="g16">
      <g
         id="g15">
        <path
           d="m 18.703125,-12.34375 c -1.929687,0.09375 -3.53125,0.261719 -4.8125,0.5 -1.28125,0.242188 -2.296875,0.554688 -3.046875,0.9375 -0.75,0.375 -1.289062,0.808594 -1.609375,1.296875 -0.3125,0.492187 -0.46875,1.023437 -0.46875,1.59375 0,1.148437 0.316406,1.960937 0.953125,2.4375 0.644531,0.46875 1.539062,0.703125 2.6875,0.703125 1.3125,0 2.453125,-0.234375 3.421875,-0.703125 0.96875,-0.46875 1.925781,-1.195313 2.875,-2.1875 z M 2.609375,-25.4375 c 1.738281,-1.5625 3.65625,-2.726562 5.75,-3.5 2.101563,-0.78125 4.378906,-1.171875 6.828125,-1.171875 1.75,0 3.316406,0.289063 4.703125,0.859375 1.382813,0.574219 2.554687,1.371094 3.515625,2.390625 0.96875,1.023437 1.707031,2.242187 2.21875,3.65625 0.519531,1.417969 0.78125,2.964844 0.78125,4.640625 V 0 H 22.796875 C 22.054688,0 21.488281,-0.101562 21.09375,-0.3125 20.707031,-0.519531 20.390625,-0.960938 20.140625,-1.640625 l -0.625,-1.890625 c -0.75,0.65625 -1.476563,1.234375 -2.171875,1.734375 -0.699219,0.492187 -1.421875,0.902344 -2.171875,1.234375 -0.742187,0.335938 -1.539063,0.5820312 -2.390625,0.75 C 11.9375,0.363281 10.988281,0.453125 9.9375,0.453125 8.644531,0.453125 7.460938,0.28125 6.390625,-0.0625 5.316406,-0.40625 4.394531,-0.914062 3.625,-1.59375 2.851562,-2.269531 2.253906,-3.113281 1.828125,-4.125 c -0.417969,-1.007812 -0.625,-2.175781 -0.625,-3.5 0,-1.082031 0.273437,-2.164062 0.828125,-3.25 0.550781,-1.09375 1.5,-2.082031 2.84375,-2.96875 1.351562,-0.894531 3.148438,-1.632812 5.390625,-2.21875 2.25,-0.582031 5.0625,-0.910156 8.4375,-0.984375 V -18.5625 c 0,-1.851562 -0.390625,-3.210938 -1.171875,-4.078125 -0.78125,-0.875 -1.90625,-1.3125 -3.375,-1.3125 -1.09375,0 -2.007812,0.132813 -2.734375,0.390625 -0.71875,0.261719 -1.355469,0.542969 -1.90625,0.84375 -0.542969,0.292969 -1.054687,0.570312 -1.53125,0.828125 -0.46875,0.25 -1.023437,0.375 -1.65625,0.375 -0.554687,0 -1.015625,-0.132813 -1.390625,-0.40625 -0.367188,-0.28125 -0.671875,-0.613281 -0.921875,-1 z m 0,0"
           id="path14" />
      </g>
    </g>
  </g>
</svg>
